<svg width="800" height="800" viewBox="0 0 800 800" fill="none" xmlns="http://www.w3.org/2000/svg"><g clip-path="url(#clip0_1275_5024)"><path d="M800 0H0v800h800V0z" fill="#EFF1F3"/><g clip-path="url(#clip1_1275_5024)"><path d="M399.5 671C569.88 671 708 532.88 708 362.5S569.88 54 399.5 54 91 192.12 91 362.5 229.12 671 399.5 671z" fill="#F2F2F2"/><path d="M400.691 401.807c65.784 0 119.112-53.328 119.112-119.112 0-65.784-53.328-119.112-119.112-119.112-65.784 0-119.112 53.328-119.112 119.112 0 65.784 53.328 119.112 119.112 119.112z" fill="#CCC"/><mask id="a" style="mask-type:alpha" maskUnits="userSpaceOnUse" x="91" y="54" width="617" height="617"><path d="M708 362.5C708 532.88 569.88 671 399.5 671S91 532.88 91 362.5 229.12 54 399.5 54 708 192.12 708 362.5z" fill="#F2F2F2"/></mask><g mask="url(#a)"><path d="M593.652 630.502c0 106.569-86.392 192.961-192.961 192.961-106.57 0-192.962-86.392-192.962-192.961 0-106.57 86.392-192.961 192.962-192.961 106.569 0 192.961 86.391 192.961 192.961z" fill="#CCC"/></g></g></g><defs><clipPath id="clip0_1275_5024"><path fill="#fff" d="M0 0h800v800H0z"/></clipPath><clipPath id="clip1_1275_5024"><path fill="#fff" transform="translate(91 54)" d="M0 0h617v617H0z"/></clipPath></defs></svg>