<svg width="134" height="39" viewBox="0 0 134 39" fill="none" xmlns="http://www.w3.org/2000/svg"><g clip-path="url(#clip0_1299_5021)"><path fill-rule="evenodd" clip-rule="evenodd" d="M10.787 30.456c4.174 0 7.795-2.408 9.588-5.93h8.968C27.16 32.86 19.68 39 10.787 39h-.05 25.261c1.409 0 2.765-.25 4.067-.751a10.814 10.814 0 003.513-2.2 10.89 10.89 0 003.486 2.2c1.303.5 2.658.751 4.067.751 1.567 0 3.037-.295 4.41-.885a11.465 11.465 0 003.618-2.468 11.47 11.47 0 002.43-3.674c.599-1.413.898-2.915.898-4.507V0h-7.553v27.466c0 .537-.106 1.046-.317 1.53a3.856 3.856 0 01-.819 1.233 3.706 3.706 0 01-2.667 1.1 3.706 3.706 0 01-1.48-.295 4.018 4.018 0 01-1.214-.805 4.094 4.094 0 01-.792-1.234 4.068 4.068 0 01-.29-1.529V0h-7.58v27.466a4.07 4.07 0 01-.29 1.53 3.854 3.854 0 01-.82 1.233 3.706 3.706 0 01-2.667 1.1 3.706 3.706 0 01-1.478-.295 4.018 4.018 0 01-1.215-.805 4.092 4.092 0 01-.793-1.234 4.068 4.068 0 01-.29-1.529V0H10.688h.1C19.68 0 27.16 6.14 29.342 14.474h-8.968c-1.793-3.522-5.414-5.93-9.588-5.93C4.83 8.544 0 13.449 0 19.5c0 6.05 4.83 10.956 10.787 10.956z" fill="#BF1E2E"/><path fill-rule="evenodd" clip-rule="evenodd" d="M79.632 14.29l.138-.12-1.834-3.065-.194.211c-.419.46-.914.815-1.487 1.065a4.559 4.559 0 01-1.802.366 4.364 4.364 0 01-1.78-.365 4.648 4.648 0 01-1.452-.997 4.76 4.76 0 01-.981-1.465 4.524 4.524 0 01-.36-1.796c0-.639.12-1.237.36-1.797a4.564 4.564 0 01.98-1.474l.001-.002c.413-.42.897-.752 1.453-.996a4.363 4.363 0 011.78-.365c.627 0 1.226.125 1.8.375h.001l.001.001a4.226 4.226 0 011.487 1.054l.193.212 1.834-3.064-.137-.12A7.574 7.574 0 0077.22.502 7.786 7.786 0 0074.453 0a7.61 7.61 0 00-2.121.295 7.988 7.988 0 00-3.52 2.088 8.26 8.26 0 00-1.259 1.65v.001a8.374 8.374 0 00-.807 1.934v.002a8.238 8.238 0 00-.28 2.154c0 .742.093 1.46.28 2.153v.002c.193.684.462 1.329.806 1.933l.001.001v.002a8.394 8.394 0 002.872 2.916h.001l.002.002c.595.35 1.23.619 1.904.808.683.197 1.39.295 2.121.295.954 0 1.877-.167 2.767-.503a7.84 7.84 0 002.412-1.443zm14.488-2.077v-.001c.345-.605.61-1.25.796-1.934a7.958 7.958 0 00.291-2.154c0-.743-.097-1.462-.29-2.155a8.053 8.053 0 00-.797-1.935 8.081 8.081 0 00-2.864-2.908 7.797 7.797 0 00-1.905-.81A7.616 7.616 0 0087.23.022c-.731 0-1.439.099-2.122.296a8.038 8.038 0 00-1.904.808 7.99 7.99 0 00-1.615 1.269c-.488.495-.808 1.041-1.16 1.638v.002c-.345.598-.713 1.243-.906 1.934l-.001.002a8.238 8.238 0 00-.28 2.154c0 .742.093 1.46.28 2.153v.002c.194.684.562 1.329.906 1.933v.001l.001.002c.352.597.672 1.143 1.16 1.638a8.297 8.297 0 001.613 1.278h.001l.001.002c.596.35 1.23.619 1.904.808.683.197 1.39.295 2.122.295.731 0 1.438-.098 2.121-.295a7.79 7.79 0 001.905-.81h.002a8.293 8.293 0 002.862-2.918zm-2.687-5.887v.001c.24.56.36 1.158.36 1.797 0 .638-.12 1.236-.36 1.796a4.759 4.759 0 01-.982 1.465v.001c-.406.419-.889.75-1.451.996h-.001a4.34 4.34 0 01-1.77.365 4.364 4.364 0 01-1.779-.365 4.649 4.649 0 01-1.452-.997 4.762 4.762 0 01-.982-1.465 4.524 4.524 0 01-.36-1.796c0-.639.121-1.237.36-1.797a4.564 4.564 0 01.98-1.474h.001V4.85c.414-.42.898-.752 1.453-.996a4.363 4.363 0 011.78-.365 4.34 4.34 0 011.769.365 4.488 4.488 0 011.451.995l.001.002h.002c.412.413.739.903.98 1.474zm16.305 5.697l.001-.001a7.793 7.793 0 00.776-1.872c.187-.672.28-1.369.28-2.09a7.65 7.65 0 00-.28-2.08 7.502 7.502 0 00-.777-1.872 7.838 7.838 0 00-1.205-1.586 7.569 7.569 0 00-1.563-1.236 7.478 7.478 0 00-1.852-.789 7.323 7.323 0 00-2.049-.284h-4.74v15.694h4.74a7.59 7.59 0 002.048-.274h.001a7.79 7.79 0 003.414-2.025h.002a8.314 8.314 0 001.204-1.585zm-2.717-5.655v.002c.225.524.338 1.087.338 1.69 0 .602-.113 1.169-.338 1.701v.001c-.221.528-.527.99-.919 1.389a4.34 4.34 0 01-1.367.933 4.175 4.175 0 01-1.666.333h-1.284V3.702h1.284c.594 0 1.148.115 1.664.344h.001c.527.23.982.545 1.367.942l.001.002.001.001c.392.391.697.85.918 1.377zm4.917 9.539h10.727v-3.49h-7.292V9.81h4.935V6.32h-4.935V3.702h7.292V.212h-10.727v15.695zM79 38.632h.002a4.76 4.76 0 001.502-1.026 4.77 4.77 0 001.01-1.526 4.773 4.773 0 00.373-1.873V23.093H78.46v11.114c0 .183-.035.355-.107.518v.002l-.001.001a1.308 1.308 0 01-.28.42 1.248 1.248 0 01-.906.373c-.182 0-.35-.034-.503-.1a1.378 1.378 0 01-.413-.272 1.403 1.403 0 01-.268-.42 1.392 1.392 0 01-.1-.522V23.093h-3.435v11.114a1.31 1.31 0 01-.377.942 1.25 1.25 0 01-.906.372c-.183 0-.35-.034-.504-.1a1.376 1.376 0 01-.413-.272 1.405 1.405 0 01-.268-.42 1.392 1.392 0 01-.099-.522V23.093h-3.436v11.114c0 .659.12 1.283.363 1.871v.003a5.01 5.01 0 001.008 1.524l.002.001.001.002c.431.43.932.771 1.5 1.023h.001l.002.001a4.67 4.67 0 001.843.368 4.67 4.67 0 001.689-.312 4.491 4.491 0 001.317-.786c.394.338.83.6 1.306.786h.001a4.67 4.67 0 001.69.312c.648 0 1.26-.122 1.832-.368zm4.72.155h10.728v-3.49h-7.291V32.69h4.934V29.2h-4.934v-2.617h7.29v-3.49H83.722v15.694zm19.701-15.694h-7.726v15.694h7.726c.651 0 1.262-.126 1.835-.38a4.798 4.798 0 001.492-1.024 4.923 4.923 0 001.019-1.525 4.692 4.692 0 00.374-1.864 3.69 3.69 0 00-.122-.925 3.977 3.977 0 00-.863-1.718c-.133-.16-.28-.3-.437-.419a3.15 3.15 0 00.425-.412c.208-.24.385-.508.533-.8.146-.29.26-.592.341-.906.082-.314.123-.623.123-.927 0-.66-.125-1.282-.374-1.864a4.8 4.8 0 00-1.019-1.514 4.714 4.714 0 00-1.492-1.036 4.479 4.479 0 00-1.835-.38zm.903 9.976l.004.005.004.003c.118.114.209.249.275.406.064.156.098.326.098.511s-.034.355-.098.51a1.313 1.313 0 01-.279.421 1.256 1.256 0 01-.907.373h-4.29V32.69h4.29c.183 0 .35.034.503.1.156.067.288.16.4.28zm0-6.107l.004.004.004.004c.118.114.209.248.275.406a1.407 1.407 0 01-.001 1.034 1.257 1.257 0 01-1.185.791h-4.29v-2.618h4.29c.183 0 .35.034.503.1.156.066.288.16.4.279zm5.232 11.825h10.727v-3.49h-7.292V32.69h4.935V29.2h-4.935v-2.617h7.292v-3.49h-10.727v15.694zm20.76-8.263v.002a2.807 2.807 0 01-.593.899 2.907 2.907 0 01-.887.613 2.703 2.703 0 01-1.078.217h-2.792v-5.672h2.792c.384 0 .741.076 1.077.226h.001l.002.001c.338.146.632.347.885.603.252.256.449.558.592.908l.001.002.001.003c.149.34.223.703.223 1.093s-.074.757-.224 1.105zm-8.786 8.263h3.436v-3.055l3.008-.019 1.309 3.074h3.66l-1.722-4.124a6.222 6.222 0 001.062-.913 6.04 6.04 0 00.912-1.28c.253-.462.445-.95.574-1.463a6.109 6.109 0 00.207-1.588 6.13 6.13 0 00-.228-1.676 6.178 6.178 0 00-.63-1.51 5.94 5.94 0 00-.976-1.277 5.866 5.866 0 00-1.258-.992 5.778 5.778 0 00-1.475-.639 5.864 5.864 0 00-1.651-.232h-6.228v15.694z" fill="#000"/><path d="M133.778 2.915c0 1.61-1.285 2.915-2.87 2.915-1.585 0-2.87-1.305-2.87-2.915S129.323 0 130.908 0c1.585 0 2.87 1.305 2.87 2.915z" fill="#BF1E2E"/></g><defs><clipPath id="clip0_1299_5021"><path fill="#fff" d="M0 0h134v39H0z"/></clipPath></defs></svg>