<svg width="800" height="800" viewBox="0 0 800 800" fill="none" xmlns="http://www.w3.org/2000/svg"><g clip-path="url(#clip0_1275_5021)"><path d="M800 0H0v800h800V0z" fill="#EFF1F3"/><path fill-rule="evenodd" clip-rule="evenodd" d="M221.668 256.544c.067-9.563 7.797-17.301 17.36-17.377h315.28c9.59 0 17.36 7.787 17.36 17.377v280.245c-.067 9.563-7.797 17.302-17.36 17.378h-315.28c-9.59-.01-17.36-7.787-17.36-17.378V256.544zm315.002 17.623h-280v245l162.61-162.645c6.834-6.831 17.911-6.831 24.745 0l92.645 92.82V274.167zm-245.004 69.999c0 19.33 15.67 35 35 35s35-15.67 35-35-15.67-35-35-35-35 15.67-35 35z" fill="#CCC"/></g><defs><clipPath id="clip0_1275_5021"><path fill="#fff" d="M0 0h800v800H0z"/></clipPath></defs></svg>